# xmcd
#
# Track frame offsets: 
#        150
#        10950
#        20404
#        29922
#        40827
#        56907
#        70325
#        82242
#        97322
#        108457
#        125554
#        141129
#        151537
#        164169
#        174151
#        184896
#        225717
#        236972
#        250077
#
# Disc length: 3456 seconds
#
# Revision: 0
# Processed by: cddbd v1.5.2PL0 Copyright (c) Steve Scherf et al.
# Submitted via: ExactAudioCopy v1.0b1
#
DISCID=130d7e13
DTITLE=Johnny Copeland - It's Me: Classic Texas Soul 1965-72 [CD2]
DYEAR=2013
DGENRE=Soul
TTITLE0=Why Don't You Make Up Your Mind (1970 Released 2013)
TTITLE1=Somebody's Been Scratchin' (Duet With Lilly (Lavelle White)) (
TTITLE1=1970)
TTITLE2=Sufferin' City (Version 2) (Duet With Lilly (Lavelle White)) (
TTITLE2=1970)
TTITLE3=Soul Power (1970)
TTITLE4=Ghetto Child (1970)
TTITLE5=Every Dog's Got His Day (1971)
TTITLE6=Wizard Of Art (1971)
TTITLE7=Dear Mother (1971)
TTITLE8=You Must Believe In Yourself (1971)
TTITLE9=Love Attack (1972)
TTITLE10=Old Man Blues (1972)
TTITLE11=No Puppy Love (1972 Released 1992)
TTITLE12=I Waited Too Long (Demo) (1966 Released 2013)
TTITLE13=Hip Hop, The (Demo) (1966 Released 2013)
TTITLE14=Invitation, The (Demo) (1965 Released 2013)
TTITLE15=Johnny Ace Medley #2: Cross My Heart, Saving My Love For You,
TTITLE15=Angel, Anymore (Demo) (1966 Released 2013)
TTITLE16=Blowing In The Wind (Demo) (1966 Released 2013)
TTITLE17=I'm Going To Make My Home Where I Hang My Hat (Demo) (1966 Re
TTITLE17=leased 2013)
TTITLE18=Wake Up, Little Susie (Overdubbed Version) (1966 Released 201
TTITLE18=3)
EXTD=
EXTT0=
EXTT1=
EXTT2=
EXTT3=
EXTT4=
EXTT5=
EXTT6=
EXTT7=
EXTT8=
EXTT9=
EXTT10=
EXTT11=
EXTT12=
EXTT13=
EXTT14=
EXTT15=
EXTT16=
EXTT17=
EXTT18=
PLAYORDER=
